<mxfile host="app.diagrams.net" modified="2024-06-03T11:20:05.474Z" agent="Mozilla/5.0 (Windows NT 10.0; Win64; x64) AppleWebKit/537.36 (KHTML, like Gecko) Chrome/125.0.0.0 Safari/537.36" etag="bWd2MIZNcC3cHRAPUxbh" version="24.4.10" type="device">
  <diagram name="Página-1" id="BHv-SCFc_MRitOIf1noG">
    <mxGraphModel dx="1947" dy="500" grid="1" gridSize="10" guides="1" tooltips="1" connect="1" arrows="1" fold="1" page="1" pageScale="1" pageWidth="827" pageHeight="1169" math="0" shadow="0">
      <root>
        <mxCell id="0" />
        <mxCell id="1" parent="0" />
        <mxCell id="46lIRPi5Zz2nD5y6fj8c-1" value="+-----------------------------------+&#xa;|             Program               |&#xa;+-----------------------------------+&#xa;|                                   |&#xa;+-----------------------------------+&#xa;| + Main(args: string[]): void      |&#xa;+-----------------------------------+&#xa;           1   |  1&#xa;                |&#xa;                v&#xa;+-----------------------------------+&#xa;|            Controller             |&#xa;+-----------------------------------+&#xa;| - jogosOriginais: IEnumerable&lt;Jogo&gt;|&#xa;| + ficheiro: string                |&#xa;| + view: View                      |&#xa;| - leitor: LeitorDeFicheiro        |&#xa;+-----------------------------------+&#xa;| + Controller(jogos: IEnumerable&lt;Jogo&gt;, leitor: LeitorDeFicheiro, view: View, ficheiro: string) |&#xa;| + Iniciar(): void                 |&#xa;| - MenuPrincipal(jogos: IEnumerable&lt;Jogo&gt;): void |&#xa;| - MenuSecundario(jogos: IEnumerable&lt;Jogo&gt;): void |&#xa;| - MenuRealizarPesquisa(jogos: IEnumerable&lt;Jogo&gt;): void |&#xa;| - MenuOrdenacao(jogos: IEnumerable&lt;Jogo&gt;): void |&#xa;| - MenuFlitragem(jogos: IEnumerable&lt;Jogo&gt;): void |&#xa;+-----------------------------------+&#xa;              1 | *&#xa;                |&#xa;                v&#xa;+-----------------------------------+&#xa;|              Jogo                 |&#xa;+-----------------------------------+&#xa;| + ID: int {get;}                  |&#xa;| + Nome: string {get;}             |&#xa;| + Data: DateTime {get;}           |&#xa;| + Idade: int {get;}               |&#xa;| + NumDLC: int {get;}              |&#xa;| + Nota: int {get;}                |&#xa;| + Numtralers: int {get;}          |&#xa;| + NumRecom: int {get;}            |&#xa;| + NumPrint: int {get;}            |&#xa;| + NumCompraram: int {get;}        |&#xa;| + NumOfPlayers: int {get;}        |&#xa;| + Numachievements: int {get;}     |&#xa;| + Suporte: bool {get;}            |&#xa;| + Windows: bool {get;}            |&#xa;| + Linux: bool {get;}              |&#xa;| + Mac: bool {get;}                |&#xa;| + Single: bool {get;}             |&#xa;| + Multi: bool {get;}              |&#xa;| + Cop: bool {get;}                |&#xa;| + Editor: bool {get;}             |&#xa;| + VR: bool {get;}                 |&#xa;| + URL: Uri {get;}                 |&#xa;| + Descricao: string {get;}        |&#xa;| + Imagem: Uri {get;}              |&#xa;| + Website: Uri {get;}             |&#xa;+-----------------------------------+&#xa;            *  |  1&#xa;               |&#xa;               v&#xa;+-----------------------------------+&#xa;|              View                 |&#xa;+-----------------------------------+&#xa;| + MostrarMenuPrincipal(): string  |&#xa;| + MostrarMenuSecundario(): string |&#xa;| + MostrarMenuOrdenacao(): string  |&#xa;| + MostrarFlitragem(): string      |&#xa;| + MostrarJogo(ID: int, Nome: string, Data: DateTime, NumDLC: int, Nota: int, NumRecom: int, NumCompraram: int, NumOfPlayers: int, Numachievements: int): void |&#xa;| + MostrarErro(): void             |&#xa;| + nom(): string                   |&#xa;| + datee(): string                 |&#xa;| + idad(): int                     |&#xa;| + Not(): int                      |&#xa;| + Reeee(): int                    |&#xa;+-----------------------------------+&#xa;             1 |  1&#xa;                |&#xa;                v&#xa;+-----------------------------------+&#xa;|        LeitorDeFicheiro           |&#xa;+-----------------------------------+&#xa;| + VerificarFicheiro(ficheiro: string): IEnumerable&lt;Jogo&gt; |&#xa;| + LerFicheiro(ficheiro: string): IEnumerable&lt;Jogo&gt;       |&#xa;+-----------------------------------+" style="text;whiteSpace=wrap;" vertex="1" parent="1">
          <mxGeometry x="-146" y="180" width="560" height="1260" as="geometry" />
        </mxCell>
      </root>
    </mxGraphModel>
  </diagram>
</mxfile>
